<svg width="15" height="32" viewBox="0 0 15 32" fill="none" xmlns="http://www.w3.org/2000/svg">
<path fill-rule="evenodd" clip-rule="evenodd" d="M3.276 31.597C3.276 31.82 3.456 32 3.679 32H9.424C9.647 32 9.827 31.82 9.827 31.597V15.874H13.992C14.202 15.874 14.376 15.714 14.394 15.504L14.794 10.768C14.7987 10.7125 14.7918 10.6565 14.7738 10.6038C14.7558 10.551 14.7271 10.5026 14.6894 10.4615C14.6517 10.4205 14.6059 10.3877 14.5549 10.3652C14.5039 10.3427 14.4487 10.3311 14.393 10.331H9.827V6.97C9.827 6.182 10.465 5.543 11.253 5.543H14.463C14.686 5.543 14.866 5.363 14.866 5.14V0.403C14.866 0.296118 14.8235 0.193613 14.748 0.118036C14.6724 0.0424588 14.5699 0 14.463 0L9.04 0C7.51156 0 6.04572 0.607171 4.96494 1.68794C3.88417 2.76872 3.277 4.23456 3.277 5.763V10.331H0.403C0.296291 10.331 0.193938 10.3733 0.118389 10.4487C0.0428407 10.524 0.000264787 10.6263 0 10.733V15.471C0 15.694 0.18 15.874 0.403 15.874H3.276V31.597Z" fill="#B8050C"/>
</svg>
